<svg width="22" height="22" viewBox="0 0 22 22" fill="none" xmlns="http://www.w3.org/2000/svg">
<path d="M8.25 17.875H13.75V15.125H8.25V17.875Z" fill="white" fill-opacity="0.7"/>
<path d="M5.5 0C4.77065 0 4.07118 0.289731 3.55546 0.805456C3.03973 1.32118 2.75 2.02065 2.75 2.75V19.25C2.75 19.9793 3.03973 20.6788 3.55546 21.1945C4.07118 21.7103 4.77065 22 5.5 22H16.5C17.2293 22 17.9288 21.7103 18.4445 21.1945C18.9603 20.6788 19.25 19.9793 19.25 19.25V2.75C19.25 2.02065 18.9603 1.32118 18.4445 0.805456C17.9288 0.289731 17.2293 0 16.5 0L5.5 0ZM10.3125 4.125H11.6875C12.1702 4.12499 12.6444 3.99791 13.0625 3.75655C13.4805 3.51519 13.8276 3.16804 14.069 2.75H16.5V19.25H5.5V2.75H7.931C8.17236 3.16804 8.5195 3.51519 8.93754 3.75655C9.35558 3.99791 9.82979 4.12499 10.3125 4.125Z" fill="white" fill-opacity="0.7"/>
</svg>
