<svg width="167" height="35" viewBox="0 0 167 35" fill="none" xmlns="http://www.w3.org/2000/svg">
<path d="M17.9542 10.102V34H7.98238V10.102H0.343856V0.474002H25.5682V10.102H17.9542ZM40.1821 8.99673C43.6534 8.99673 46.6253 10.2493 49.0978 12.7546C51.5866 15.2435 52.8311 18.2317 52.8311 21.7194C52.8311 25.2562 51.5703 28.2691 49.0487 30.7579C46.5434 33.2468 43.5142 34.4912 39.961 34.4912C36.4078 34.4912 33.3704 33.2468 30.8488 30.7579C28.3272 28.2527 27.0664 25.2398 27.0664 21.7194C27.0664 18.1335 28.3272 15.1206 30.8488 12.6809C33.3704 10.2248 36.4815 8.99673 40.1821 8.99673ZM39.9365 18.0598C38.954 18.0598 38.1189 18.42 37.4312 19.1405C36.7435 19.8446 36.3997 20.7124 36.3997 21.744C36.3997 22.7592 36.7435 23.627 37.4312 24.3475C38.1353 25.0679 38.9704 25.4282 39.9365 25.4282C40.9189 25.4282 41.754 25.0679 42.4417 24.3475C43.1458 23.627 43.4978 22.7592 43.4978 21.744C43.4978 20.7124 43.154 19.8446 42.4663 19.1405C41.7786 18.42 40.9353 18.0598 39.9365 18.0598ZM65.8485 0.474002V34H56.6626V0.474002H65.8485ZM79.922 9.51251L75.4274 18.4282L82.108 34H71.9397L66.1924 18.0107L70.3678 9.51251H79.922ZM95.3956 8.99673C98.8669 8.99673 101.839 10.2493 104.311 12.7546C106.8 15.2435 108.045 18.2317 108.045 21.7194C108.045 25.2562 106.784 28.2691 104.262 30.7579C101.757 33.2468 98.7277 34.4912 95.1745 34.4912C91.6214 34.4912 88.584 33.2468 86.0623 30.7579C83.5407 28.2527 82.2799 25.2398 82.2799 21.7194C82.2799 18.1335 83.5407 15.1206 86.0623 12.6809C88.584 10.2248 91.695 8.99673 95.3956 8.99673ZM95.15 18.0598C94.1675 18.0598 93.3324 18.42 92.6447 19.1405C91.957 19.8446 91.6132 20.7124 91.6132 21.744C91.6132 22.7592 91.957 23.627 92.6447 24.3475C93.3488 25.0679 94.1839 25.4282 95.15 25.4282C96.1324 25.4282 96.9675 25.0679 97.6552 24.3475C98.3593 23.627 98.7113 22.7592 98.7113 21.744C98.7113 20.7124 98.3675 19.8446 97.6798 19.1405C96.9921 18.42 96.1488 18.0598 95.15 18.0598ZM141.669 0.474002L132.827 15.6774L141.62 34H130.42L122.83 15.4809L131.427 0.474002H141.669ZM122.536 0.474002V34H112.564V0.474002H122.536ZM144.346 9.85637H153.532V23.6843C153.532 25.0761 154.113 25.772 155.276 25.772C156.422 25.772 156.995 25.0761 156.995 23.6843V9.85637H166.181V23.5124C166.181 26.689 165.125 29.3743 163.012 31.5684C160.9 33.7462 158.313 34.8351 155.251 34.8351C151.763 34.8351 148.955 33.5661 146.827 31.0281C145.173 29.0468 144.346 26.296 144.346 22.7755V9.85637Z" fill="#DC143C"/>
</svg>
