<svg width="31" height="31" viewBox="0 0 31 31" fill="none" xmlns="http://www.w3.org/2000/svg">
<path d="M30.4285 14.9942C30.1944 6.71326 23.2915 0.189993 15.0105 0.424154C6.72964 0.658316 0.206369 7.56124 0.440531 15.8422C0.652155 23.326 6.31068 29.3742 13.5106 30.2963L13.2143 19.8186L9.40721 19.9263L9.28465 15.5921L13.0917 15.4844L12.9983 12.181C12.8921 8.42317 15.0719 6.28414 18.4969 6.18729C20.1373 6.1409 21.8615 6.38523 21.8615 6.38523L21.9658 10.0752L20.0752 10.1286C18.2125 10.1813 17.6643 11.3535 17.6978 12.5394L17.7774 15.3519L21.9358 15.2343L21.3936 19.5873L17.8999 19.6861L18.1962 30.1638C25.3325 28.8363 30.6402 22.4782 30.4285 14.9942Z" fill="#1877F2"/>
<path d="M21.3937 19.5873L21.9359 15.2343L17.7774 15.3519L17.6978 12.5394C17.6643 11.3534 18.2125 10.1813 20.0752 10.1286L21.9658 10.0752L21.8615 6.38522C21.8615 6.38522 20.1373 6.14089 18.4968 6.18728C15.0719 6.28412 12.8921 8.42316 12.9983 12.181L13.0917 15.4844L9.28468 15.5921L9.40723 19.9263L13.2143 19.8186L13.5106 30.2962C14.289 30.3958 15.0741 30.4345 15.8586 30.4122C16.643 30.3902 17.4246 30.3071 18.1962 30.1638L17.8999 19.6861L21.3937 19.5873Z" fill="white"/>
</svg>
