<svg width="92" height="30" viewBox="0 0 92 30" fill="none" xmlns="http://www.w3.org/2000/svg">
<path d="M88.5814 18.3343L91.1178 20.0252C90.2946 21.2377 88.3257 23.318 84.9216 23.318C80.6944 23.318 77.5464 20.0475 77.5464 15.8869C77.5464 11.4596 80.7278 8.45605 84.5657 8.45605C88.4257 8.45605 90.3167 11.5262 90.9287 13.1837L91.2625 14.0293L81.3175 18.1452C82.0739 19.6359 83.2532 20.3923 84.9216 20.3923C86.5903 20.3923 87.7471 19.5691 88.5814 18.3343ZM80.7835 15.6536L87.4246 12.8946C87.0575 11.9714 85.9675 11.3152 84.6657 11.3152C83.0083 11.3152 80.7057 12.7836 80.7835 15.6536Z" fill="#FF302F"/>
<path d="M72.752 0.880371H75.9555V22.6393H72.752V0.880371Z" fill="#20B15A"/>
<path d="M67.7017 9.03429H70.7942V22.2498C70.7942 27.7339 67.557 29.9921 63.7302 29.9921C60.1261 29.9921 57.957 27.5671 57.1449 25.5982L59.9815 24.4189C60.4931 25.6314 61.7279 27.0666 63.7302 27.0666C66.1886 27.0666 67.7017 25.5425 67.7017 22.6948V21.627H67.5904C66.8561 22.5168 65.4545 23.3177 63.6747 23.3177C59.9592 23.3177 56.5551 20.0805 56.5551 15.9091C56.5551 11.7152 59.9592 8.44482 63.6747 8.44482C65.4434 8.44482 66.8561 9.23465 67.5904 10.1023H67.7017V9.03429ZM67.924 15.9091C67.924 13.2838 66.1776 11.3704 63.9527 11.3704C61.7056 11.3704 59.8145 13.2838 59.8145 15.9091C59.8145 18.5009 61.7056 20.3809 63.9527 20.3809C66.1777 20.3921 67.9242 18.5009 67.9242 15.9091" fill="#3686F7"/>
<path d="M38.9679 15.8536C38.9679 20.1364 35.6307 23.2845 31.537 23.2845C27.4434 23.2845 24.1061 20.1254 24.1061 15.8536C24.1061 11.5486 27.4434 8.41162 31.537 8.41162C35.6307 8.41162 38.9679 11.5486 38.9679 15.8536ZM35.7197 15.8536C35.7197 13.1839 33.7839 11.3482 31.537 11.3482C29.29 11.3482 27.3543 13.1839 27.3543 15.8536C27.3543 18.5011 29.29 20.3589 31.537 20.3589C33.7841 20.3589 35.7197 18.5011 35.7197 15.8536Z" fill="#FF302F"/>
<path d="M55.1981 15.8869C55.1981 20.1698 51.8608 23.3178 47.7672 23.3178C43.6734 23.3178 40.3363 20.1696 40.3363 15.8869C40.3363 11.5819 43.6734 8.45605 47.7672 8.45605C51.8608 8.45605 55.1981 11.5709 55.1981 15.8869ZM51.9386 15.8869C51.9386 13.2173 50.0031 11.3816 47.7559 11.3816C45.5088 11.3816 43.5733 13.2173 43.5733 15.8869C43.5733 18.5344 45.509 20.3923 47.7559 20.3923C50.0142 20.3923 51.9386 18.5234 51.9386 15.8869Z" fill="#FFBA40"/>
<path d="M11.8918 20.0584C7.23069 20.0584 3.58212 16.2984 3.58212 11.6373C3.58212 6.97643 7.23069 3.21643 11.8918 3.21643C14.4059 3.21643 16.2412 4.20643 17.5984 5.47465L19.8344 3.23876C17.9434 1.42554 15.4182 0.0458984 11.8918 0.0458984C5.50658 0.046077 0.133545 5.25233 0.133545 11.6373C0.133545 18.0223 5.50658 23.2288 11.8918 23.2288C15.3403 23.2288 17.9434 22.0941 19.9791 19.9805C22.0703 17.8891 22.7155 14.9523 22.7155 12.5718C22.7155 11.8264 22.6266 11.0589 22.5264 10.4916H11.8918V13.5841H19.4673C19.2448 15.5198 18.633 16.8436 17.7319 17.7445C16.6418 18.8459 14.9177 20.0584 11.8918 20.0584Z" fill="#3686F7"/>
</svg>
