<svg width="32" height="31" viewBox="0 0 32 31" fill="none" xmlns="http://www.w3.org/2000/svg">
<path d="M23.8121 0.19891L7.88098 0.649399C3.99928 0.759163 0.94152 3.99488 1.05128 7.87658L1.50177 23.8077C1.61154 27.6894 4.84726 30.7472 8.72896 30.6374L24.6601 30.1869C28.5418 30.0772 31.5996 26.8414 31.4898 22.9597L31.0393 7.0286C30.9295 3.1469 27.6938 0.0891457 23.8121 0.19891Z" fill="url(#paint0_radial_915_23420)"/>
<path d="M23.8121 0.19891L7.88098 0.649399C3.99928 0.759163 0.94152 3.99488 1.05128 7.87658L1.50177 23.8077C1.61154 27.6894 4.84726 30.7472 8.72896 30.6374L24.6601 30.1869C28.5418 30.0772 31.5996 26.8414 31.4898 22.9597L31.0393 7.0286C30.9295 3.1469 27.6938 0.0891457 23.8121 0.19891Z" fill="url(#paint1_radial_915_23420)"/>
<path d="M15.9403 3.70388C12.759 3.79384 12.3601 3.81907 11.1123 3.91122C9.86682 4.00365 9.02114 4.2251 8.28455 4.53585C7.52246 4.85682 6.88025 5.27557 6.2476 5.94528C5.61436 6.61489 5.23257 7.27974 4.95423 8.05842C4.68479 8.81165 4.51126 9.66885 4.49039 10.9169C4.46985 12.1681 4.4665 12.5679 4.55647 15.7493C4.64643 18.9308 4.67174 19.3284 4.76377 20.5762C4.85643 21.8217 5.07788 22.6674 5.3884 23.404C5.7096 24.166 6.12835 24.8083 6.79806 25.4409C7.46744 26.0742 8.13231 26.4569 8.91074 26.7343C9.66429 27.0029 10.5213 27.1762 11.7697 27.1981C13.0209 27.2196 13.4202 27.2222 16.6014 27.1323C19.7831 27.0423 20.1807 27.0171 21.4286 26.925C22.674 26.8326 23.5206 26.6111 24.2578 26.3003C25.0195 25.9794 25.6608 25.5597 26.2932 24.8896C26.9264 24.2201 27.3081 23.5553 27.5866 22.7766C27.8534 22.0233 28.0271 21.1662 28.0504 19.918C28.0712 18.667 28.0746 18.2683 27.9846 15.0869C27.8946 11.9054 27.8687 11.5066 27.7773 10.2587C27.6834 9.01325 27.4616 8.1677 27.1526 7.43106C26.8306 6.669 26.412 6.02679 25.7419 5.39403C25.072 4.76092 24.409 4.37908 23.6294 4.10206C22.8744 3.83337 22.0171 3.65995 20.7684 3.63817C19.5173 3.61669 19.1191 3.614 15.9367 3.70399L15.9403 3.70388ZM14.9492 5.84459C15.2611 5.8353 15.6091 5.82593 16 5.81488C19.1278 5.72643 19.4988 5.7272 20.7355 5.74838C21.8791 5.76833 22.5044 5.94162 22.9218 6.09031C23.4745 6.28711 23.8714 6.52993 24.2928 6.92846C24.7144 7.32686 24.9791 7.71011 25.2075 8.25079C25.3795 8.65859 25.5881 9.27309 25.6724 10.4137C25.7634 11.6471 25.7861 12.0176 25.8745 15.1438C25.9629 18.2701 25.9612 18.6414 25.94 19.8778C25.92 21.0214 25.7467 21.6467 25.598 22.0637C25.4012 22.6164 25.1579 23.0128 24.7595 23.4342C24.3611 23.8557 23.979 24.1205 23.4381 24.3483C23.0302 24.5211 22.4152 24.729 21.2746 24.8135C20.0413 24.9045 19.6708 24.9272 16.543 25.0156C13.4151 25.1041 13.044 25.1024 11.8076 25.0812C10.664 25.0608 10.0387 24.8875 9.6209 24.7388C9.06832 24.5419 8.6706 24.2992 8.24901 23.9008C7.82743 23.5024 7.56269 23.1201 7.33438 22.5792C7.16235 22.1713 6.95376 21.5568 6.86946 20.4161C6.77843 19.1828 6.75669 18.8122 6.66824 15.684C6.57978 12.5558 6.58059 12.1866 6.60178 10.9501C6.62173 9.80648 6.79502 9.18118 6.94371 8.76372C7.14063 8.21102 7.38379 7.8134 7.7823 7.39181C8.18082 6.97022 8.56395 6.70534 9.10463 6.47716C9.513 6.30441 10.1278 6.09652 11.2684 6.01175C12.3476 5.93234 12.766 5.90586 14.9491 5.84166L14.9492 5.84459ZM22.308 7.58306C21.5319 7.60501 20.9201 8.25186 20.9421 9.02803C20.964 9.80409 21.6114 10.4159 22.3875 10.394C23.1635 10.372 23.7754 9.72459 23.7534 8.94853C23.7315 8.17248 23.084 7.56065 22.308 7.58259L22.308 7.58306ZM16.1015 9.40231C12.7794 9.49625 10.162 12.2659 10.2559 15.5882C10.3499 18.9104 13.1196 21.5265 16.4417 21.4325C19.7639 21.3386 22.3804 18.5702 22.2864 15.248C22.1925 11.9259 19.4235 9.30837 16.1012 9.40232L16.1015 9.40231ZM16.1612 11.5133C18.3176 11.4523 20.1154 13.151 20.1764 15.3077C20.2373 17.4641 18.5384 19.2619 16.382 19.3228C14.2256 19.3838 12.4279 17.6849 12.3669 15.5285C12.306 13.3718 14.0046 11.5743 16.1612 11.5133Z" fill="white"/>
<defs>
<radialGradient id="paint0_radial_915_23420" cx="0" cy="0" r="1" gradientUnits="userSpaceOnUse" gradientTransform="translate(9.7314 32.9206) rotate(-91.6197) scale(29.7322 27.6533)">
<stop stop-color="#FFDD55"/>
<stop offset="0.1" stop-color="#FFDD55"/>
<stop offset="0.5" stop-color="#FF543E"/>
<stop offset="1" stop-color="#C837AB"/>
</radialGradient>
<radialGradient id="paint1_radial_915_23420" cx="0" cy="0" r="1" gradientUnits="userSpaceOnUse" gradientTransform="translate(-4.10949 3.15038) rotate(77.0613) scale(13.2905 54.7837)">
<stop stop-color="#3771C8"/>
<stop offset="0.128" stop-color="#3771C8"/>
<stop offset="1" stop-color="#6600FF" stop-opacity="0"/>
</radialGradient>
</defs>
</svg>
