<svg width="140" height="30" viewBox="0 0 140 30" fill="none" xmlns="http://www.w3.org/2000/svg">
<path d="M139.638 13.4863V11.0304H136.589V7.21277L136.486 7.24413L133.622 8.12068L133.565 8.13786V11.0304H129.044V9.41913C129.044 8.66886 129.212 8.0945 129.543 7.71186C129.871 7.33331 130.341 7.14104 130.94 7.14104C131.371 7.14104 131.816 7.2425 132.265 7.44241L132.378 7.49259V4.90659L132.325 4.8875C131.906 4.73668 131.337 4.66113 130.631 4.66113C129.741 4.66113 128.933 4.8545 128.228 5.23822C127.523 5.62195 126.968 6.17068 126.58 6.86804C126.192 7.56459 125.996 8.36886 125.996 9.25904V11.0307H123.873V13.4866H125.996V23.832H129.044V13.4863H133.565V20.0607C133.565 22.7683 134.842 24.1407 137.361 24.1407C137.796 24.1381 138.23 24.0899 138.656 23.9967C139.108 23.8993 139.416 23.802 139.598 23.698L139.638 23.6743V21.1958L139.514 21.2779C139.349 21.3883 139.143 21.4783 138.901 21.5451C138.659 21.6133 138.456 21.6477 138.299 21.6477C137.709 21.6477 137.273 21.4887 137.001 21.1748C136.728 20.8584 136.589 20.3045 136.589 19.53V13.4863H139.638ZM117.065 21.648C115.959 21.648 115.086 21.2809 114.471 20.5584C113.853 19.8319 113.54 18.7966 113.54 17.4807C113.54 16.1233 113.853 15.061 114.472 14.3217C115.087 13.5875 115.951 13.2147 117.04 13.2147C118.097 13.2147 118.938 13.5706 119.541 14.2734C120.147 14.9795 120.454 16.0333 120.454 17.4065C120.454 18.7966 120.165 19.8646 119.595 20.5789C119.029 21.288 118.178 21.648 117.065 21.648ZM117.201 10.722C115.09 10.722 113.413 11.3405 112.218 12.5604C111.023 13.7806 110.418 15.4688 110.418 17.5791C110.418 19.5834 111.009 21.1955 112.175 22.3701C113.341 23.5448 114.929 24.1401 116.892 24.1401C118.938 24.1401 120.581 23.5131 121.776 22.2763C122.971 21.0409 123.576 19.3685 123.576 17.3072C123.576 15.2719 123.008 13.6478 121.888 12.481C120.766 11.3138 119.189 10.722 117.201 10.722ZM105.503 10.722C104.067 10.722 102.879 11.0893 101.972 11.8134C101.059 12.5419 100.596 13.4975 100.596 14.6536C100.596 15.2544 100.696 15.7881 100.893 16.2409C101.09 16.6952 101.397 17.095 101.804 17.4308C102.207 17.7638 102.83 18.1126 103.656 18.4671C104.351 18.753 104.868 18.9949 105.197 19.1852C105.519 19.372 105.747 19.5597 105.876 19.7424C106.001 19.921 106.065 20.166 106.065 20.4679C106.065 21.328 105.421 21.7464 104.096 21.7464C103.604 21.7464 103.043 21.6439 102.429 21.4415C101.819 21.242 101.244 20.9502 100.722 20.5761L100.596 20.4856V23.4201L100.642 23.442C101.074 23.641 101.618 23.8088 102.258 23.941C102.898 24.073 103.479 24.1404 103.984 24.1404C105.542 24.1404 106.797 23.7714 107.712 23.0429C108.634 22.3093 109.101 21.3316 109.101 20.1351C109.101 19.2725 108.85 18.5323 108.354 17.9356C107.862 17.3438 107.008 16.8002 105.817 16.32C104.868 15.939 104.259 15.6229 104.009 15.3801C103.767 15.1456 103.644 14.814 103.644 14.3942C103.644 14.0217 103.796 13.7236 104.107 13.482C104.421 13.2392 104.857 13.1157 105.404 13.1157C105.912 13.1157 106.432 13.1959 106.949 13.353C107.465 13.5103 107.918 13.7211 108.297 13.9786L108.422 14.0637V11.2797L108.374 11.2592C108.025 11.1092 107.564 10.981 107.005 10.8774C106.447 10.7743 105.942 10.722 105.503 10.722ZM92.6489 21.648C91.5427 21.648 90.6703 21.2809 90.0555 20.5584C89.437 19.8319 89.1242 18.7966 89.1242 17.4807C89.1242 16.1233 89.4373 15.061 90.0564 14.3217C90.6708 13.5875 91.5345 13.2147 92.6244 13.2147C93.6812 13.2147 94.5225 13.5706 95.1253 14.2734C95.731 14.9795 96.0384 16.0333 96.0384 17.4065C96.0384 18.7966 95.7493 19.8646 95.1793 20.5789C94.6131 21.288 93.7622 21.648 92.6489 21.648ZM92.785 10.722C90.6735 10.722 88.9968 11.3405 87.8023 12.5604C86.6077 13.7806 86.0014 15.4688 86.0014 17.5791C86.0014 19.5842 86.5933 21.1955 87.7592 22.3701C88.9251 23.5448 90.5124 24.1401 92.4763 24.1401C94.5217 24.1401 96.1657 23.5131 97.3608 22.2763C98.5551 21.0409 99.1608 19.3685 99.1608 17.3072C99.1608 15.2719 98.5924 13.6478 97.4715 12.481C96.3498 11.3138 94.7729 10.722 92.785 10.722ZM81.3741 13.2474V11.0304H78.3629V23.8314H81.3738V17.283C81.3738 16.1694 81.6264 15.2547 82.1246 14.5639C82.6164 13.8812 83.272 13.5351 84.0719 13.5351C84.3433 13.5351 84.6476 13.5799 84.9774 13.6685C85.3038 13.7563 85.5403 13.8518 85.6796 13.9521L85.8062 14.044V11.0086L85.7571 10.9876C85.477 10.8684 85.0802 10.8084 84.5784 10.8084C83.8215 10.8084 83.1444 11.0514 82.5645 11.53C82.0554 11.9509 81.6872 12.528 81.406 13.2474H81.3741ZM72.9705 10.722C71.5892 10.722 70.3567 11.0184 69.3086 11.6023C68.2586 12.1873 67.4462 13.0232 66.8936 14.0855C66.3435 15.1456 66.0643 16.3838 66.0643 17.7646C66.0643 18.9739 66.3351 20.0839 66.8702 21.0619C67.4058 22.0418 68.164 22.8084 69.1234 23.3402C70.0818 23.8712 71.1894 24.1404 72.4153 24.1404C73.8463 24.1404 75.0681 23.8543 76.048 23.2903L76.0873 23.2674V20.5088L75.961 20.6012C75.5102 20.9278 75.0138 21.1862 74.4877 21.3681C73.9553 21.5539 73.4704 21.6477 73.045 21.6477C71.8633 21.6477 70.915 21.2781 70.2263 20.5494C69.5363 19.8193 69.1864 18.7947 69.1864 17.505C69.1864 16.2073 69.5514 15.1562 70.2703 14.3803C70.9873 13.6071 71.9374 13.215 73.0946 13.215C74.0843 13.215 75.0487 13.5501 75.961 14.212L76.0873 14.3037V11.397L76.0466 11.374C75.703 11.1818 75.235 11.023 74.6535 10.9028C74.0748 10.7828 73.5086 10.722 72.9705 10.722ZM63.9904 11.0304H60.979V23.8314H63.9904V11.0304ZM62.5155 5.57722C62.02 5.57722 61.5877 5.74604 61.2326 6.08013C60.8759 6.41559 60.6948 6.83777 60.6948 7.33577C60.6948 7.82613 60.8737 8.24041 61.2266 8.56686C61.5776 8.89222 62.0113 9.05722 62.5155 9.05722C63.0195 9.05722 63.4548 8.89222 63.8099 8.56741C64.1672 8.24041 64.3485 7.82613 64.3485 7.33577C64.3485 6.85522 64.1721 6.43713 63.8246 6.09377C63.4774 5.75095 63.0367 5.57722 62.5155 5.57722ZM55.0024 10.0862V23.8311H58.0755V5.96913H53.8223L48.4161 19.2365L43.1699 5.96913H38.7435V23.8314H41.6314V10.0849H41.7307L47.2706 23.8314H49.4497L54.9032 10.086L55.0024 10.0862Z" fill="#706D6E"/>
<path d="M14.167 14.1652H0.00183105V0H14.167V14.1652Z" fill="#F1511B"/>
<path d="M29.8073 14.1652H15.6422V0H29.8073V14.1652Z" fill="#80CC28"/>
<path d="M14.1667 29.8112H0.00183105V15.646H14.1667V29.8112Z" fill="#00ADEF"/>
<path d="M29.8073 29.8112H15.6422V15.646H29.8073V29.8112Z" fill="#FBBC09"/>
</svg>
